<svg width="100" height="30" viewBox="0 0 100 30" xmlns="http://www.w3.org/2000/svg"><title>Logo</title><g fill="#004876" fill-rule="evenodd"><path d="M28 8h3.035v5.597h5.91V8H40v14h-3.054v-5.759h-5.911V22H28V8m22.501 12.238c2.492 0 4.17-2 4.17-4.739 0-2.74-1.678-4.74-4.17-4.74-2.494 0-4.17 1.94-4.17 4.74 0 2.801 1.676 4.74 4.17 4.74m0-12.239C55.004 8 58 11.182 58 15.5S55.004 23 50.501 23C45.912 23 43 19.818 43 15.5S45.912 8 50.501 8m12.729 2.462v4.64h2.896c1.686 0 2.561-.935 2.561-2.34 0-1.404-.875-2.3-2.561-2.3H63.23M60 8h6.563C70.063 8 72 9.913 72 12.702c0 2.826-1.937 4.861-5.437 4.861H63.23V22H60V8m18.228 2.462v4.64h2.896c1.688 0 2.563-.935 2.563-2.34 0-1.404-.875-2.3-2.563-2.3h-2.896M75 8h6.561C85.063 8 87 9.913 87 12.702c0 2.826-1.937 4.861-5.439 4.861h-3.333V22H75V8m14 0h10.77v2.585h-7.535v3.052h6.137v2.422h-6.137v3.356H100V22H89V8"/><path d="M73 24.498c-5.952 2.144-18.12 4.322-26.991 4.322-18.008 0-30.761-4.032-30.219-12.612.26-2.007 1.157-3.858 2.903-5.495 1.22-1.145 2.856-2.185 4.982-3.1-7.189 2-10.854 5.32-10.854 9.694 0 1.97 1.017 4.565 2.585 6.056-3.49-2.12-5.39-4.69-5.39-7.46 0-6.325 10.212-11.606 24.409-12.868-15.684 1.09-27.22 6.318-27.75 12.577h-.003l-.006.093-.004.055c-.24 3.213 2.276 5.583 2.276 5.583-1.186-.708-5.098-3.053-5.098-6.245C3.84 8.131 17.321.888 40.65.002L40.693 0l-.058.002c-6.422.023-12.49.585-17.883 1.568C8.597 3.87 1.877 8.28.348 13.043A5.797 5.797 0 0 0 0 15c0 .032.003.064.003.097 0 .047-.003.094-.003.14 0 6.415 10.388 11.499 25.14 13.594C30.033 29.584 35.41 30 41.054 30c.304 0 .606-.002.908-.004.188 0 .374.004.562.004.263 0 .524-.002.784-.005-.14-.001-.299-.005-.47-.01 11.533-.18 23.006-2.53 30.161-5.487"/></g></svg>