<?xml version="1.0" encoding="utf-8"?>
<!-- Generator: Adobe Illustrator 23.0.0, SVG Export Plug-In . SVG Version: 6.00 Build 0)  -->
<svg version="1.1" id="Layer_1" xmlns="http://www.w3.org/2000/svg" xmlns:xlink="http://www.w3.org/1999/xlink" x="0px" y="0px"
	 viewBox="0 0 236 55.4" style="enable-background:new 0 0 236 55.4;" xml:space="preserve">
<style type="text/css">
	.st0{fill:#E31E24;}
	.st1{fill:#2B2A29;}
</style>
<g id="Layer_x0020_1">
	<g id="_1608022512">
		<polygon class="st0" points="0,38.4 4.8,38.4 4.8,0 0,0 		"/>
		<polygon class="st0" points="7.2,38.4 26.4,19.2 7.2,0 		"/>
		<polygon class="st0" points="52.8,0 47.9,0 47.9,16.8 45.6,16.8 45.6,0 26.4,19.2 45.6,38.4 45.6,21.5 47.9,21.5 47.9,38.4 
			52.8,38.4 52.8,21.5 57.5,21.5 57.5,16.8 52.8,16.8 		"/>
		<polygon class="st1" points="62.3,38.4 74.3,38.4 74.3,0 62.3,0 		"/>
		<path class="st1" d="M91.1,12c0-6.6-5.4-12-12-12h-2.4v24h2.4C85.8,24,91.1,18.6,91.1,12z"/>
		<polygon class="st1" points="93.5,38.4 105.5,38.4 105.5,0 93.5,0 		"/>
		<path class="st1" d="M122.3,10.8c0-6-4.8-10.8-10.8-10.8h-3.6v38.4h14.4l-9.2-16.9C118.3,20.7,122.3,16.2,122.3,10.8z"/>
		<polygon class="st1" points="145.3,38.4 157.7,38.4 147.4,0 135,0 135,0 		"/>
		<polygon class="st1" points="140,27.8 133.7,4.6 124.7,38.4 137.1,38.4 		"/>
		<polygon class="st1" points="188.1,38.4 172.6,0 159.7,0 175.1,38.4 		"/>
		<polygon class="st1" points="159.7,38.4 172.5,38.4 166.1,22.4 		"/>
		<polygon class="st1" points="188.1,0 175.2,0 181.6,16 		"/>
		<polygon class="st1" points="193.2,38.4 205.2,38.4 205.2,0 193.2,0 		"/>
		<path class="st1" d="M227,35c0,1.5-0.7,2.3-1.4,2.7l-13.8-16.1v16.7H227c5.4,0,9-3.4,9-8.3c0-1.7,0-5-5.4-11.7
			c-5.4-6.7-10.7-11.7-10.7-15c0-1.4,0.7-2.3,1.4-2.7l13.8,16.1V0h-15.2c-5.4,0-9,3.3-9,8.3c0,1.7,0,5,5.4,11.7
			C221.7,26.7,227,31.7,227,35z"/>
		<path class="st1" d="M7.3,55.2l-0.7-2.7H3.3l-0.8,2.7H0L3.3,44h3.4L10,55.2H7.3z M6.2,50.7l-1-3.7C5.1,46.6,5,46,5,45.8H4.9
			c0,0.2-0.1,0.8-0.1,1.1l-1,3.7H6.2z"/>
		<path class="st1" d="M16.8,55.4c-2.7,0-4.5-0.8-4.5-4.1V44H15v7.3c0,1.4,0.5,2,1.8,2c1.3,0,1.9-0.4,1.9-2V44h2.6v7.3
			C21.3,54.3,19.7,55.4,16.8,55.4z"/>
		<polygon class="st1" points="29.2,46.1 29.2,55.2 26.6,55.2 26.6,46.1 23.8,46.1 23.8,44 32,44 32,46.1 		"/>
		<path class="st1" d="M38.8,55.4c-3,0-4.9-1.7-4.9-5.8s1.9-5.8,4.9-5.8c3,0,5,1.6,5,5.8C43.8,53.7,41.8,55.4,38.8,55.4z M38.8,45.8
			c-1.4,0-2.2,0.7-2.2,3.8c0,3.2,0.8,3.8,2.2,3.8c1.4,0,2.2-0.6,2.2-3.8C41,46.5,40.3,45.8,38.8,45.8z"/>
		<path class="st1" d="M56.7,55.2l-0.3-6.6c0-0.4,0-0.9,0-1.2h-0.1c0,0.2-0.2,0.9-0.3,1.2l-1.8,6.6h-2.5l-1.8-6.6
			c-0.1-0.4-0.2-1-0.2-1.3h-0.1c0,0.3,0,0.8,0,1.2L49,55.2h-2.3L47.5,44h3l2.1,6.9c0.1,0.5,0.2,1.2,0.3,1.5H53c0-0.3,0.1-1,0.3-1.5
			l2.1-6.9h3l0.8,11.2H56.7z"/>
		<path class="st1" d="M69,55.2l-0.8-2.7h-3.4l-0.7,2.7h-2.6L64.9,44h3.5l3.2,11.2H69z M67.8,50.7l-1-3.7c0-0.3-0.1-0.9-0.1-1.1
			h-0.1c0,0.2-0.1,0.8-0.2,1.1l-1,3.7H67.8z"/>
		<polygon class="st1" points="77.9,46.1 77.9,55.2 75.3,55.2 75.3,46.1 72.5,46.1 72.5,44 80.7,44 80.7,46.1 		"/>
		<polygon class="st1" points="83.7,55.2 86.3,55.2 86.3,44 83.7,44 		"/>
		<path class="st1" d="M95,55.4c-3,0-5-1.7-5-5.8s2-5.8,5-5.8c3,0,4.9,1.6,4.9,5.8C99.9,53.7,98,55.4,95,55.4z M95,45.8
			c-1.4,0-2.2,0.7-2.2,3.8c0,3.2,0.9,3.8,2.2,3.8c1.4,0,2.2-0.6,2.2-3.8C97.2,46.5,96.4,45.8,95,45.8z"/>
		<path class="st1" d="M110.1,55.2l-3.6-6.3c-0.2-0.3-0.4-0.9-0.4-1.2h-0.2c0,0.2,0,0.9,0,1.2v6.3h-2.4V44h2.7l3.4,6.1
			c0.2,0.4,0.4,0.9,0.4,1.2h0.2c0-0.2-0.1-0.9-0.1-1.2V44h2.4v11.2H110.1z"/>
		<polygon class="st1" points="125.6,46.1 125.6,55.2 123,55.2 123,46.1 120.2,46.1 120.2,44 128.4,44 128.4,46.1 		"/>
		<polygon class="st1" points="131.4,55.2 131.4,44 138.6,44 138.6,46 134,46 134,48.5 138.3,48.5 138.3,50.5 134,50.5 134,53.1 
			138.6,53.1 138.8,55.2 		"/>
		<path class="st1" d="M146.8,55.4c-3.5,0-4.9-1.8-4.9-5.8c0-4.1,1.7-5.8,4.8-5.8c0.9,0,1.8,0.1,3.3,0.7l-0.5,2.2
			c-1.3-0.5-2.1-0.7-2.7-0.7c-1.3,0-2.1,0.6-2.1,3.6c0,3.2,0.8,3.7,2.2,3.7c0.5,0,1.2-0.2,2.8-0.9l0.5,2.2
			C148.8,55.1,147.7,55.4,146.8,55.4z"/>
		<polygon class="st1" points="160,55.2 160,50.5 156.1,50.5 156.1,55.2 153.5,55.2 153.5,44 156.1,44 156.1,48.4 160,48.4 160,44 
			162.6,44 162.6,55.2 		"/>
		<path class="st1" d="M173.6,55.2l-3.6-6.3c-0.2-0.3-0.4-0.9-0.5-1.2h-0.1c0,0.2,0,0.9,0,1.2v6.3h-2.4V44h2.7l3.4,6.1
			c0.2,0.4,0.4,0.9,0.4,1.2h0.2c0-0.2-0.1-0.9-0.1-1.2V44h2.4v11.2H173.6z"/>
		<path class="st1" d="M184.7,55.4c-3,0-5-1.7-5-5.8s2-5.8,5-5.8c3,0,5,1.6,5,5.8C189.7,53.7,187.7,55.4,184.7,55.4z M184.7,45.8
			c-1.4,0-2.2,0.7-2.2,3.8c0,3.2,0.9,3.8,2.2,3.8s2.2-0.6,2.2-3.8C186.9,46.5,186.1,45.8,184.7,45.8z"/>
		<polygon class="st1" points="193.3,55.2 193.3,44 196,44 196,53 200.2,53 200.4,55.2 		"/>
		<path class="st1" d="M207.5,55.4c-3,0-4.9-1.7-4.9-5.8s1.9-5.8,4.9-5.8c3,0,5,1.6,5,5.8C212.5,53.7,210.5,55.4,207.5,55.4z
			 M207.5,45.8c-1.4,0-2.2,0.7-2.2,3.8c0,3.2,0.8,3.8,2.2,3.8s2.2-0.6,2.2-3.8C209.7,46.5,209,45.8,207.5,45.8z"/>
		<path class="st1" d="M220.3,55.4c-3.5,0-5-1.8-5-5.8c0-4.2,1.8-5.8,5-5.8c1,0,2.1,0.1,4,0.7l-0.6,2.2c-1.4-0.5-2.6-0.7-3.3-0.7
			c-1.5,0-2.3,0.6-2.3,3.6s0.8,3.7,2.2,3.7c0.3,0,0.8,0,1.5-0.2v-2.6H220v-1.8h4.3v5.9C222.6,55.1,221.4,55.4,220.3,55.4z"/>
		<path class="st1" d="M232.7,51.1v4.1H230v-4.1l-3.3-7.1h2.7l1.6,3.6c0.2,0.5,0.3,1,0.3,1.4h0.2c0-0.4,0.1-0.9,0.3-1.4l1.5-3.6h2.7
			L232.7,51.1z"/>
	</g>
</g>
</svg>
